<?xml version="1.0" encoding="utf-8" ?><svg xmlns="http://www.w3.org/2000/svg" xmlns:xlink="http://www.w3.org/1999/xlink" width="1024" height="1024" viewBox="0 0 1024 1024"><path fill="#039FA6" d="M362.11 281.19C363.597 226.956 351.949 183.53 395.148 140.525C413.07 122.98 436.347 111.934 461.273 109.147C471.834 108.007 484.128 108.33 494.856 108.383L537.521 108.55C574.548 107.133 600.473 112.74 629.112 138.318C651.189 158.037 664.588 187.91 665.138 217.346C665.499 236.671 665.571 259.591 664.942 279.093C660.549 267.105 656.592 259.425 644.475 253.787C625.506 244.961 601.631 252.482 592.774 271.855C589.495 279.025 590.129 285.933 589.193 293.507C587.585 305.146 579.116 315.663 568.246 320.06C559.276 323.688 552.033 322.172 542.728 322.792C527.327 323.819 512.463 331.881 506.239 346.529C502.356 355.668 502.082 368.315 505.76 377.529C509.324 386.455 516.558 393.303 525.433 396.827C527.608 397.69 532.311 398.308 532.96 399.464L532.615 399.802C505.491 399.694 475.258 399.125 448.375 399.965C437.434 410.001 426.968 420.79 415.884 430.715C413.785 432.594 411.387 434.791 409.52 436.854C427.304 454.091 433.232 467.311 440.456 490.339C443.568 514.284 443.317 532.263 442.943 556.579L443.096 568.131C442.695 580.607 442.019 590.974 438.252 603.194C425.151 645.701 386.704 676.801 342.429 680.772C330.536 681.839 317.927 680.788 305.904 681.249L304.812 681.52L266.33 681.666C256.901 681.675 241.022 681.963 232.125 679.904C227.293 678.351 222.129 677.453 217.033 675.749C199.622 669.736 183.891 659.669 171.137 646.379C146.826 621.098 139.489 592.987 140.051 559.004C139.981 512.041 135.591 472.34 172.286 435.537C190.751 416.914 215.098 405.264 241.185 402.57C250.283 401.67 262.032 401.982 271.328 401.992L313.197 402.068C320.376 401.887 328.106 402.022 335.327 402.016C340.191 398.136 344.946 393.61 349.438 389.285C362.302 376.897 375.579 364.756 388.274 352.204C369.325 329.323 361.972 311.48 362.11 281.19Z"/><path fill="#052136" d="M140.051 559.004C139.981 512.041 135.591 472.34 172.286 435.537C190.751 416.914 215.098 405.264 241.185 402.57C250.283 401.67 262.032 401.982 271.328 401.992L313.197 402.068C301.033 408.163 291.858 414.34 287.28 427.988C280.949 446.858 289.616 468.015 308.969 474.571C316.429 477.098 324.392 476.279 332.11 476.739C347.365 477.283 360.603 484.912 367.795 498.562C376.429 514.95 370.728 539.509 372.818 557.813C374.77 553.483 376.78 549.051 379.578 545.194C384.954 537.694 393.165 532.722 402.302 531.432C412.731 529.855 423.355 532.569 431.751 538.953C437.002 542.944 442.029 550.031 442.943 556.579L443.096 568.131C442.695 580.607 442.019 590.974 438.252 603.194C425.151 645.701 386.704 676.801 342.429 680.772C330.536 681.839 317.927 680.788 305.904 681.249L304.812 681.52L266.33 681.666C256.901 681.675 241.022 681.963 232.125 679.904C227.293 678.351 222.129 677.453 217.033 675.749C199.622 669.736 183.891 659.669 171.137 646.379C146.826 621.098 139.489 592.987 140.051 559.004Z"/><path fill="#4CC2E8" d="M372.818 557.813C374.77 553.483 376.78 549.051 379.578 545.194C384.954 537.694 393.165 532.722 402.302 531.432C412.731 529.855 423.355 532.569 431.751 538.953C437.002 542.944 442.029 550.031 442.943 556.579L443.096 568.131C442.695 580.607 442.019 590.974 438.252 603.194C425.151 645.701 386.704 676.801 342.429 680.772C330.536 681.839 317.927 680.788 305.904 681.249C305.77 681.179 305.636 681.109 305.503 681.039C297.066 672.401 290.555 668.255 286.57 655.951C283.122 645.482 284.01 634.069 289.036 624.26C293.329 616.013 301.303 609.286 310.181 606.513C328.529 605.897 346.109 609.652 360.276 595.486C372.224 583.538 372.623 573.241 372.818 557.813Z"/><path fill="#039FA6" d="M140.051 559.004C144.868 547.893 147.876 539.654 160.342 534.865C177.158 528.406 200.858 532.256 207.494 551.267C209.968 558.262 209.494 564.319 210.267 571.388C211.688 585.024 220.207 596.894 232.671 602.605C236.449 604.342 240.474 605.481 244.601 605.983C251.327 606.862 260.438 606.422 267.392 606.489C281.58 606.624 296.002 606.165 310.181 606.513C301.303 609.286 293.329 616.013 289.036 624.26C284.01 634.069 283.122 645.482 286.57 655.951C290.555 668.255 297.066 672.401 305.503 681.039C305.636 681.109 305.77 681.179 305.904 681.249L304.812 681.52L266.33 681.666C256.901 681.675 241.022 681.963 232.125 679.904C227.293 678.351 222.129 677.453 217.033 675.749C199.622 669.736 183.891 659.669 171.137 646.379C146.826 621.098 139.489 592.987 140.051 559.004Z"/><path fill="#052136" d="M362.11 281.19C363.597 226.956 351.949 183.53 395.148 140.525C413.07 122.98 436.347 111.934 461.273 109.147C471.834 108.007 484.128 108.33 494.856 108.383L537.521 108.55L536.86 108.907C534.549 110.125 529.905 111.471 526.761 112.98C516.848 117.746 509.274 126.306 505.749 136.725C502.265 147.141 503.106 158.52 508.082 168.311C512.431 176.759 518.133 181.268 526.04 185.986L496.61 185.784C477.397 185.594 461.625 184.188 446.56 198.915C436.53 208.72 433.417 219.842 433.402 233.47L433.488 269.749L431.961 270.455C415.857 241.358 366.429 250.143 362.11 281.19Z"/><path fill="#057589" d="M433.719 272.054C434.155 272.844 434.673 276.097 434.16 276.618C433.63 276.435 433.021 273.278 432.875 272.658L433.719 272.054Z"/><path fill="#083A54" d="M431.961 270.455L433.488 269.749L433.719 272.054L432.875 272.658C432.545 271.754 432.377 271.323 431.961 270.455Z"/><path fill="#052136" d="M532.615 399.802L532.96 399.464C532.311 398.308 527.608 397.69 525.433 396.827C516.558 393.303 509.324 386.455 505.76 377.529C502.082 368.315 502.356 355.668 506.239 346.529C512.463 331.881 527.327 323.819 542.728 322.792C552.033 322.172 559.276 323.688 568.246 320.06C579.116 315.663 587.585 305.146 589.193 293.507C590.129 285.933 589.495 279.025 592.774 271.855C601.631 252.482 625.506 244.961 644.475 253.787C656.592 259.425 660.549 267.105 664.942 279.093C665.796 308.872 657.808 328.328 639.96 351.756C654.885 368.009 677.495 385.319 692.251 401.847L766.46 402.011C773.693 401.936 780.671 401.757 787.875 402.638C850.684 410.319 892.25 463.771 887.494 526.051C887.821 542.463 888.463 561.661 887.327 577.914C883.724 629.429 845.339 669.725 795.945 679.271C773.432 683.511 745.52 680.84 722.148 681.585C712.967 681.256 703.499 681.771 694.256 681.482C666.27 680.608 642.211 670.736 621.011 652.482C601.838 636.112 589.658 613.025 586.971 587.958C586.249 581.486 586.61 574.724 586.105 568.057C585.679 560.252 585.337 553.136 585.91 545.281C586.313 526.391 584.41 509.441 588.299 490.817C592.135 471.712 604.57 450.151 618.316 436.599C616.352 434.555 613.935 432.261 611.813 430.366C600.868 420.593 590.582 409.367 579.453 399.876C565.437 399.383 546.719 399.561 532.615 399.802Z"/><path fill="#039FA6" d="M814.978 525.795C820.622 536.931 826.198 543.664 838.642 547.785C848.495 551.154 859.297 550.342 868.534 545.537C875.47 541.95 879.254 538.232 883.426 531.81C884.193 530.629 886.551 526.384 887.494 526.051C887.821 542.463 888.463 561.661 887.327 577.914C883.724 629.429 845.339 669.725 795.945 679.271C773.432 683.511 745.52 680.84 722.148 681.585C712.967 681.256 703.499 681.771 694.256 681.482C666.27 680.608 642.211 670.736 621.011 652.482C601.838 636.112 589.658 613.025 586.971 587.958C586.249 581.486 586.61 574.724 586.105 568.057C585.679 560.252 585.337 553.136 585.91 545.281C586.132 550.019 586.056 555.849 586.119 560.696C592.245 540.823 601.708 531.966 623.683 531.974C629.521 531.976 635.941 533.979 641.047 536.946C662.864 549.622 647.374 576.896 665.17 593.017C675.024 602.734 684.604 606.329 698.309 606.349C713.899 606.372 729.011 606.535 744.568 606.453C757.087 606.387 772.441 607.293 784.547 605.568C790.238 604.757 799.358 599.374 803.431 595.237C815.95 582.521 815.475 569.364 815.118 552.799C814.93 544.075 814.817 534.339 814.978 525.795Z"/><path fill="#4CC2E8" d="M766.46 402.011C773.693 401.936 780.671 401.757 787.875 402.638C850.684 410.319 892.25 463.771 887.494 526.051C886.551 526.384 884.193 530.629 883.426 531.81C879.254 538.232 875.47 541.95 868.534 545.537C859.297 550.342 848.495 551.154 838.642 547.785C826.198 543.664 820.622 536.931 814.978 525.795C814.652 516.151 815.072 508.38 811.362 499.389C805.745 485.781 793.258 477.971 778.841 476.873C769.39 476.153 762.739 477.586 753.499 473.651C745.007 470.003 738.309 463.134 734.876 454.553C731.419 445.938 731.604 436.29 735.388 427.814C741.703 413.317 752.65 407.378 766.46 402.011Z"/><path fill="#4CC2E8" d="M722.148 681.585C745.52 680.84 773.432 683.511 795.945 679.271C795.608 682.625 795.519 684.942 795.49 688.32C795.845 696.847 795.623 706.711 795.62 715.321L795.619 763.558L795.597 796.158C795.506 815.976 795.082 833.58 780.525 849.267C769.211 861.458 753.591 869.33 736.852 869.492C723.082 869.605 709.304 869.509 695.557 869.467L614.554 869.149L401.028 869.594C398.937 869.038 396.894 868.316 394.917 867.435C385.178 863.037 377.578 854.96 373.78 844.971C368.062 830.059 371.18 812.126 382.599 800.766C387.185 796.205 391.109 794.564 397.035 792.349C405.126 791.85 416.792 792.266 425.183 792.3L475.598 792.372L646.491 792.392L694.643 792.336C702.375 792.33 714.544 792.678 721.985 791.957L722.12 688.927L722.148 681.585Z"/><path fill="#052136" d="M722.148 681.585C745.52 680.84 773.432 683.511 795.945 679.271C795.608 682.625 795.519 684.942 795.49 688.32C792.253 699.177 787.539 707.475 777.154 713.095C768.086 717.888 757.49 718.899 747.679 715.909C734.38 711.736 726.182 702.09 722.721 688.825L722.12 688.927L722.148 681.585Z"/><path fill="#052136" d="M232.125 679.904C241.022 681.963 256.901 681.675 266.33 681.666L304.812 681.52L304.777 757.675C304.814 768.699 304.576 781.293 304.995 792.213C335.51 792.834 366.482 792.178 397.035 792.349C391.109 794.564 387.185 796.205 382.599 800.766C371.18 812.126 368.062 830.059 373.78 844.971C377.578 854.96 385.178 863.037 394.917 867.435C396.894 868.316 398.937 869.038 401.028 869.594C396.586 870.175 387.637 869.611 382.791 869.623L336.728 869.617L306.353 869.636C297.781 869.635 287.894 870.091 279.646 868.319C269.197 865.994 259.511 861.047 251.503 853.944C228.91 833.728 232.048 809.924 232.029 782.654L232.204 716.668C232.253 705.772 232.773 690.533 232.125 679.904Z"/><path fill="#4CC2E8" d="M440.456 490.339C458.996 490.427 477.324 490.215 495.914 490.469L501.015 490.434C519.867 490.318 538.718 490.325 557.57 490.453C566.405 490.548 579.841 491.207 588.299 490.817C584.41 509.441 586.313 526.391 585.91 545.281C585.337 553.136 585.679 560.252 586.105 568.057C559.003 567.441 529.363 567.975 502.096 567.969L463.451 567.979C457.666 567.972 448.622 567.733 443.096 568.131L442.943 556.579C443.317 532.263 443.568 514.284 440.456 490.339Z"/><path fill="#052136" d="M440.456 490.339C458.996 490.427 477.324 490.215 495.914 490.469L495.723 492.096C474.318 499.756 462.997 521.118 471.197 542.747C474.911 552.754 482.525 560.829 492.297 565.125C494.984 566.305 499.177 567.452 502.096 567.969L463.451 567.979C457.666 567.972 448.622 567.733 443.096 568.131L442.943 556.579C443.317 532.263 443.568 514.284 440.456 490.339Z"/><path fill="#083A54" d="M495.914 490.469L501.015 490.434C499.222 490.987 497.548 491.552 495.723 492.096L495.914 490.469Z"/></svg>